PathFileType  4	(X/Y/Z) C:\Users\antoi\Documents\MyRepositories\mobilecap\ResultsAnalysis
DataRate	CameraRate	NumFrames	NumMarkers	Units	OrigDataRate	OrigDataStartFrame	OrigNumFrames
100.0	100.0	6	51	mm	100.0	127	145
Frame#	Time	r_knee			r_shank_antsup			r_ankle			r_calc			r_5meta			r_toe			L_knee			L_shank_antsup			L_ankle			L_calc			L_5meta			L_toe			r_sh2			r_sh3			r_sh4			L_sh2			L_sh3			r_thigh1			r_thigh2			r_thigh3			r_thigh4			r_thigh5			L_thigh1			L_thigh2			L_thigh3			L_thigh4			r.ASIS			r.PSIS			L.ASIS			L.PSIS			C7			R_Shoulder			L_Shoulder			R_Sternum			L_Sternum			R_humerus			R_elbow_med			R_elbow_lat			R_forearm			R_wrist_radius			R_wrist_ulna			L_humerus			L_elbow_med			L_elbow_lat			L_forearm			L_wrist_radius			L_wrist_ulna			R_HJC			L_HJC			R_HJC_reg			L_HJC_reg			
		X1	Y1	Z1	X2	Y2	Z2	X3	Y3	Z3	X4	Y4	Z4	X5	Y5	Z5	X6	Y6	Z6	X7	Y7	Z7	X8	Y8	Z8	X9	Y9	Z9	X10	Y10	Z10	X11	Y11	Z11	X12	Y12	Z12	X13	Y13	Z13	X14	Y14	Z14	X15	Y15	Z15	X16	Y16	Z16	X17	Y17	Z17	X18	Y18	Z18	X19	Y19	Z19	X20	Y20	Z20	X21	Y21	Z21	X22	Y22	Z22	X23	Y23	Z23	X24	Y24	Z24	X25	Y25	Z25	X26	Y26	Z26	X27	Y27	Z27	X28	Y28	Z28	X29	Y29	Z29	X30	Y30	Z30	X31	Y31	Z31	X32	Y32	Z32	X33	Y33	Z33	X34	Y34	Z34	X35	Y35	Z35	X36	Y36	Z36	X37	Y37	Z37	X38	Y38	Z38	X39	Y39	Z39	X40	Y40	Z40	X41	Y41	Z41	X42	Y42	Z42	X43	Y43	Z43	X44	Y44	Z44	X45	Y45	Z45	X46	Y46	Z46	X47	Y47	Z47	X48	Y48	Z48	X49	Y49	Z49	X50	Y50	Z50	X51	Y51	Z51	

127	1.26000000	1368.87139	488.86151	-94.41891	1419.86587	435.05567	-117.35570	1436.06869	91.64437	-130.57506	1372.68454	64.03693	-171.71780	1545.66312	45.03380	-102.60290	1592.18908	82.45197	-155.42471	1089.98766	479.90738	-341.70917	1073.30787	378.83756	-347.11204	858.24089	152.00440	-302.66004	781.92634	140.67172	-251.67987	923.34999	43.34074	-341.58998	974.98442	53.45142	-291.76689	1427.36909	319.78926	-97.68258	1343.91215	426.99264	-82.04230	1353.57257	314.14692	-84.94926	999.71813	435.05277	-344.54930	935.43163	330.32029	-343.32557	1331.61425	809.97232	-62.52020	1362.64597	699.67651	-74.05354	1319.83430	663.39772	-37.67486	1228.89199	776.33456	-28.49127	1262.15891	664.24849	-42.73211	1080.79033	756.14896	-354.78831	1062.89291	618.71834	-331.63817	1184.66762	729.69570	-407.00793	1163.06757	597.29285	-374.81124	1312.01567	950.90580	-106.42559	1113.99667	989.96865	-155.81171	1286.12436	918.32091	-354.46286	1096.12080	989.67072	-255.54857	1102.55149	1387.95215	-247.94846	1205.03698	1369.50296	-67.60913	1195.13149	1356.63635	-425.49857	1244.03745	1367.54763	-226.28661	1247.60905	1367.70949	-266.67027	1184.69811	1239.23276	2.97014	1103.56375	1038.24001	-45.02340	1093.42326	1064.20603	21.84863	1101.00981	940.00115	82.52768	1071.09741	809.92872	117.81122	1038.84459	821.45875	128.07750	1253.01926	1253.08758	-479.44083	1318.52971	1024.93825	-417.95280	1335.85964	1055.77536	-490.43519	1447.96569	1038.68033	-466.65705	1588.95575	971.13597	-443.38657	1578.25373	949.43508	-468.20036	1231.33614	872.35852	-109.83351	1202.37468	854.19461	-313.44789	1240.97853	862.50523	-128.08520	1211.69658	862.01839	-291.46924	
128	1.27000000	1379.50089	489.47034	-94.02722	1429.15702	434.36346	-117.58071	1438.15362	91.19185	-130.99599	1373.88500	64.71983	-172.25558	1546.57895	43.01286	-102.58682	1594.06365	78.82823	-155.79791	1106.42547	479.00092	-342.23836	1086.80507	378.37378	-348.21623	865.48548	158.35102	-303.80974	789.43802	150.68584	-252.65243	925.19986	44.89756	-341.59752	977.60798	53.18334	-292.28294	1434.88148	318.95140	-97.96339	1353.75790	427.51660	-81.02333	1361.21628	314.55453	-84.12278	1015.11332	436.76761	-344.71350	947.72050	334.23192	-343.80524	1344.36629	811.36710	-62.33775	1374.88968	700.92922	-74.21115	1332.76400	664.95465	-37.33101	1242.07842	778.12946	-26.71878	1274.98048	666.15203	-41.16124	1094.30309	754.72757	-352.74493	1078.20838	616.87642	-330.54830	1198.12407	729.75258	-405.87785	1178.24169	596.85809	-374.70551	1325.16577	952.53339	-106.15244	1126.81179	991.00670	-154.19584	1298.18891	919.04995	-353.70928	1108.35671	989.91625	-253.81393	1114.13867	1388.36109	-246.20045	1217.64444	1369.82732	-66.29081	1206.22302	1357.48313	-424.13156	1255.88477	1368.28677	-225.07934	1259.19031	1368.54517	-265.40598	1197.79375	1239.39983	4.06596	1116.71038	1038.52396	-44.23548	1106.69350	1064.31303	22.80736	1114.24476	939.97186	83.10425	1083.76512	809.79421	118.05503	1051.74675	821.56235	128.60725	1263.67283	1253.56101	-478.21823	1326.32024	1024.56383	-416.31874	1343.85177	1054.84846	-489.01036	1455.80267	1036.24201	-465.12802	1595.76317	966.72327	-441.52763	1584.84086	945.09664	-466.31302	1244.86879	873.76177	-108.59042	1214.73551	854.75895	-311.96493	1254.25209	864.48342	-126.76091	1224.04936	862.70141	-289.80408	
129	1.28000000	1389.75480	490.09607	-93.63677	1438.17591	433.72365	-117.73013	1439.84553	90.99156	-131.52291	1374.73497	65.23420	-172.67122	1547.26275	41.60964	-102.61842	1595.48666	75.92834	-156.29190	1123.88920	477.90698	-343.31730	1101.32857	377.87668	-349.73363	873.82222	164.90986	-305.20531	798.35686	161.54888	-253.77104	927.28810	46.87960	-341.62167	980.48140	53.02668	-292.84930	1441.95098	318.18000	-98.26369	1363.24614	428.14691	-80.25232	1368.37314	315.11337	-83.65110	1031.68424	438.47817	-345.27016	961.12615	338.26993	-344.58669	1357.00852	812.75190	-61.79800	1386.97032	702.18055	-73.89498	1345.24729	666.45235	-36.70768	1254.99123	779.96276	-24.99975	1287.33659	667.98743	-39.61474	1108.22935	752.95556	-350.71772	1094.30022	614.70260	-329.69245	1211.98473	729.86419	-404.75109	1194.19124	596.41130	-374.88356	1338.14356	954.07435	-105.71713	1139.49397	992.07219	-152.55548	1310.31570	919.92822	-352.82182	1120.51132	990.21308	-252.06545	1125.57396	1388.88238	-244.39190	1230.32826	1370.25373	-64.98514	1217.09604	1358.32550	-422.78393	1267.63943	1369.12073	-223.92039	1270.66106	1369.45857	-264.19016	1211.13918	1239.61433	5.13336	1129.96511	1038.89626	-43.39813	1120.23099	1064.45262	23.88706	1128.04370	939.91751	83.66013	1097.29222	809.56381	118.31582	1065.46398	821.52820	129.17574	1274.06688	1254.05756	-477.01839	1333.89420	1024.21210	-414.78797	1351.67666	1054.03280	-487.67113	1463.40764	1033.64076	-463.65878	1602.14297	961.78768	-439.71362	1590.96288	940.31538	-464.54091	1258.21528	875.11193	-107.31850	1227.09693	855.43960	-310.48628	1267.37533	866.51983	-125.34403	1236.34288	863.48401	-288.03518	
130	1.29000000	1399.59835	490.71766	-93.21881	1446.87994	433.10884	-117.73205	1441.18145	91.00779	-132.12612	1375.27844	65.59393	-172.97776	1547.75013	40.71764	-102.67322	1596.50047	73.71470	-156.82267	1142.30291	476.62765	-344.94286	1116.90713	377.38778	-351.66041	883.33171	171.64139	-306.88380	808.87072	173.22809	-255.05922	929.61006	49.36122	-341.64342	983.58846	53.05429	-293.49915	1448.53745	317.46216	-98.50953	1372.27546	428.87302	-79.73667	1374.98977	315.81230	-83.51246	1049.41244	440.21110	-346.24149	975.66744	342.39555	-345.65625	1369.55206	814.05073	-60.85583	1398.83128	703.34760	-73.05569	1357.16598	667.83996	-35.79242	1267.59191	781.84401	-23.36923	1299.09995	669.67150	-38.08848	1122.53753	750.83595	-348.73395	1111.10433	612.21082	-329.12602	1226.17862	730.02163	-403.71745	1210.82604	595.96242	-375.39518	1350.90677	955.56404	-105.08481	1151.98484	993.14263	-150.96259	1322.43782	920.90716	-351.78323	1132.53663	990.54039	-250.37513	1136.86721	1389.51727	-242.53801	1243.05605	1370.77287	-63.70542	1227.76226	1359.16134	-421.46779	1279.29548	1370.02503	-222.81378	1282.01844	1370.42522	-263.03400	1224.70775	1239.86459	6.16330	1143.32520	1039.32931	-42.50455	1134.02924	1064.60222	25.09349	1142.39998	939.81969	84.20279	1111.69979	809.24186	118.59619	1079.99947	821.33381	129.79415	1284.17821	1254.55555	-475.85105	1341.27401	1023.87878	-413.36093	1359.33154	1053.33223	-486.41654	1470.77918	1030.89272	-462.26386	1608.08955	956.36704	-437.96207	1596.60770	935.12905	-462.90836	1271.30763	876.43256	-106.00327	1239.42742	856.19025	-308.99941	1280.30683	868.57527	-123.80859	1248.54805	864.32908	-286.16009	
131	1.30000000	1408.98603	491.29121	-92.74084	1455.21457	432.46955	-117.50449	1442.21232	91.16062	-132.74296	1375.58200	65.82195	-173.19910	1548.07561	40.20198	-102.71403	1597.16416	72.09870	-157.29469	1161.55862	475.18742	-347.04834	1133.52491	376.95506	-353.96016	894.05849	178.52540	-308.86136	821.14377	185.62858	-256.53675	932.19984	52.41703	-341.63594	986.93300	53.35972	-294.26567	1454.60293	316.75880	-98.61638	1380.75538	429.64367	-79.42147	1381.02898	316.60150	-83.61484	1068.23701	442.00251	-347.59677	991.33472	346.58530	-346.96340	1381.95054	815.17258	-59.47913	1410.38350	704.33874	-71.69613	1368.42268	669.05525	-34.61175	1279.80448	783.72724	-21.84379	1310.18747	671.14130	-36.61598	1137.17812	748.39467	-346.81206	1128.51794	609.43840	-328.89062	1240.61534	730.20453	-402.86162	1228.02473	595.52143	-376.25671	1363.43562	957.04724	-104.24560	1164.24831	994.18590	-149.48940	1334.46801	921.92875	-350.59733	1144.39765	990.87027	-248.81210	1148.04955	1390.24785	-240.66060	1255.78962	1371.37388	-62.46606	1238.23791	1359.99936	-420.19790	1290.85207	1370.96965	-221.76013	1293.26589	1371.41668	-261.94536	1238.45950	1240.14124	7.14881	1156.79285	1039.79127	-41.55116	1148.08658	1064.73333	26.41002	1157.29902	939.66113	84.73735	1126.98483	808.82995	118.88790	1095.35121	820.95330	130.46317	1294.00247	1255.04566	-474.72178	1348.46018	1023.56881	-412.04554	1366.81177	1052.74361	-485.24630	1477.90522	1028.01290	-460.94726	1613.59370	950.50641	-436.29167	1601.75928	929.57428	-461.43867	1284.10665	877.75043	-104.64068	1251.69313	856.95519	-307.49590	1293.02615	870.59897	-122.14791	1260.64044	865.19178	-284.19577	
132	1.31000000	1417.84185	491.75719	-92.17219	1463.12365	431.75288	-116.99052	1442.99936	91.34867	-133.30780	1375.72082	65.94841	-173.35680	1548.27741	39.93049	-102.71420	1597.55482	70.96377	-157.64346	1181.52593	473.63400	-349.51802	1151.12345	376.62026	-356.56705	906.00952	185.54013	-311.11915	835.27365	198.57455	-258.20643	935.16657	56.12449	-341.57970	990.58372	54.05879	-295.17613	1460.12624	316.02123	-98.52025	1388.63526	430.38247	-79.20163	1386.48859	317.40909	-83.82511	1088.07084	443.86524	-349.26137	1008.09153	350.82605	-348.43077	1394.11564	816.03676	-57.67098	1421.52270	705.07104	-69.87183	1378.94579	670.03900	-33.22332	1291.53344	785.53269	-20.42801	1320.57018	672.37682	-35.25849	1152.08234	745.68184	-344.96138	1146.40602	606.44658	-328.99835	1255.19201	730.38568	-402.24618	1245.64176	595.09940	-377.44671	1375.72653	958.55279	-103.21478	1176.26957	995.16288	-148.19170	1346.32775	922.93187	-349.28690	1156.07554	991.16748	-247.42867	1159.15888	1391.03677	-238.78249	1268.48927	1372.04157	-61.27908	1248.53292	1360.85148	-418.99267	1302.30913	1371.92246	-220.75910	1304.40788	1372.40185	-260.92904	1252.34316	1240.43673	8.08600	1170.37038	1040.24814	-40.53627	1162.40624	1064.81511	27.80264	1172.72197	939.42766	85.26579	1143.11360	808.32061	119.17324	1111.51501	820.35726	131.17407	1303.55418	1255.52749	-473.63290	1355.42936	1023.28884	-410.85764	1374.11292	1052.25553	-484.16170	1484.76543	1025.01282	-459.70280	1618.64158	944.25789	-434.72027	1606.40017	923.68743	-460.14842	1296.59967	879.07710	-103.23872	1263.86418	857.67656	-305.97640	1305.52714	872.53664	-120.37565	1272.60235	866.02304	-282.17379	
